{"title":"Hero.2002.BRRip.XviD-TVAL","uid":7099421,"size":1188474617,"categoryP":"video","categoryS":"movies","magnet":"?xt=urn:btih:6faf310b0dceff863a4ee4b448b31d02556f35fc&amp;dn=Hero.2002.BRRip.XviD-TVAL&amp;tr=udp%3A%2F%2Ftracker.openbittorrent.com%3A80&amp;tr=udp%3A%2F%2Fopen.demonii.com%3A1337&amp;tr=udp%3A%2F%2Ftracker.coppersurfer.tk%3A6969&amp;tr=udp%3A%2F%2Fexodus.desync.com%3A6969","seeders":0,"leechers":1,"uploader":"maximersk","files":3,"time":1331651221,"description":"Hero.2002.BRRip.XviD-TVAL\n\n\n\n\n\n\n\n\nPlot:One man defeated three assassins who sought to murder the most powerful warlord in pre-unified China. \n\nSource: 720p blueray...\n\nEnglish subs included..\nEnglish audio...\n\nComplete name :Hero 2002 BRRip Xvid TVAL.avi\nFormat : AVI\nFormat/Info : Audio Video Interleave\nFile size : 1.11 GiB\nDuration : 1h 39mn\nOverall bit rate : 1 597 Kbps\n\nVideo\nID : 0\nFormat : MPEG-4 Visual\nFormat profile : Advanced Simple@L4\nFormat settings, BVOP : Yes\nFormat settings, QPel : No\nFormat settings, GMC : No warppoints\nFormat settings, Matrix : Default (H.263)\nCodec ID : XVID\nCodec ID/Hint : XviD\nDuration : 1h 39mn\nBit rate : 1 332 Kbps\nWidth : 720 pixels\nHeight : 306 pixels\nDisplay aspect ratio : 2.35:1\nFrame rate : 23.976 fps\nResolution : 8 bits\nColorimetry : 4:2:0\nScan type : Progressive\nBits/(Pixel*Frame) : 0.252\nStream size : 945 MiB (83%)\nWriting library : XviD 1.2.1 (UTC 2008-12-04)\n\nAudio\nID : 1\nFormat : MPEG Audio\nFormat version : Version 1\nFormat profile : Layer 3\nFormat_Settings_Mode : Joint stereo\nFormat_Settings_ModeExtension : MS Stereo\nCodec ID : 55\nCodec ID/Hint : MP3\nDuration : 1h 39mn\nBit rate mode : Constant\nBit rate : 256 Kbps\nChannel(s) : 2 channels\nSampling rate : 48.0 KHz\nStream size : 182 MiB (16%)\nAlignment : Split accross interleaves\nInterleave, duration : 42 ms (1.00 video frame)\nInterleave, preload duration : 500 ms\nWriting library : LAME3.97\n","torrent":{"xt":"urn:btih:6faf310b0dceff863a4ee4b448b31d02556f35fc","amp;dn":"Hero.2002.BRRip.XviD-TVAL","amp;tr":["udp%3A%2F%2Ftracker.openbittorrent.com%3A80","udp%3A%2F%2Fopen.demonii.com%3A1337","udp%3A%2F%2Ftracker.coppersurfer.tk%3A6969","udp%3A%2F%2Fexodus.desync.com%3A6969"],"infoHash":"6faf310b0dceff863a4ee4b448b31d02556f35fc","infoHashBuffer":{"type":"Buffer","data":[111,175,49,11,13,206,255,134,58,78,228,180,72,179,29,2,85,111,53,252]},"announce":[],"urlList":[]}}